# xmcd
#
# Track frame offsets: 
#        150
#        19329
#        39813
#        65533
#        89652
#        106637
#        126294
#        150673
#        177099
#        204656
#
# Disc length: 3042 seconds
#
# Revision: 0
# Processed by: cddbd v1.5.2PL0 Copyright (c) Steve Scherf et al.
# Submitted via: ExactAudioCopy v1.3
#
DISCID=7d0be00a
DTITLE=Todd Wolfe - Borrowed Time
DYEAR=2008
DGENRE=Electric Blues, Blues Rock
TTITLE0=Tears Of Rage
TTITLE1=Ready For Love
TTITLE2=Cold Black Night
TTITLE3=Baby I'm Down 
TTITLE4=You're Not the Only One
TTITLE5=California
TTITLE6=Oh Well 
TTITLE7=Who's Been Talking 
TTITLE8=If This Is Love 
TTITLE9=Big Nosed Kate 
EXTD=
EXTT0=
EXTT1=
EXTT2=
EXTT3=
EXTT4=
EXTT5=
EXTT6=
EXTT7=
EXTT8=
EXTT9=
PLAYORDER=
